<svg width="39" height="39" viewBox="0 0 39 39" fill="none" xmlns="http://www.w3.org/2000/svg">
<g clip-path="url(#clip0_3_745)">
<path d="M19.5 39C30.2696 39 39 30.2696 39 19.5C39 8.73045 30.2696 0 19.5 0C8.73045 0 0 8.73045 0 19.5C0 30.2696 8.73045 39 19.5 39Z" fill="#EF5261"/>
<path d="M10.5306 21.3936L10.9535 28.4301V28.5166C10.9528 28.6955 10.9159 28.8724 10.8449 29.0366C10.7739 29.2008 10.6703 29.3488 10.5404 29.4718C10.4105 29.5948 10.257 29.6901 10.0892 29.752C9.92138 29.8139 9.74274 29.8411 9.56409 29.832C9.20046 29.7978 8.86479 29.6222 8.62938 29.3429C8.39396 29.0637 8.27763 28.7032 8.30543 28.339L8.65613 21.3921L8.74083 19.6758C8.77353 19.0116 8.63338 18.3502 8.33407 17.7563L7.21343 15.5321C7.05682 15.2212 6.98753 14.8737 7.01295 14.5266L7.4066 9.16409H7.83042V14.0945H8.388L8.6092 9.16653H9.19542L9.35874 14.0945H9.91631L10.1086 9.16653H10.664L10.9236 14.0945H11.3755V9.16653H11.8934L12.2362 14.5184C12.2588 14.8723 12.1831 15.2255 12.0174 15.5391L10.8694 17.7133C10.5408 18.3356 10.3892 19.0361 10.4312 19.7386L10.5306 21.3936Z" fill="#EEEFEE"/>
<path d="M10.5306 21.3936L10.9535 28.4301V28.5166C10.9524 28.6935 10.916 28.8685 10.8464 29.0311C10.7768 29.1937 10.6754 29.3408 10.5481 29.4637C10.4209 29.5866 10.2703 29.6828 10.1053 29.7467C9.94035 29.8106 9.76427 29.8408 9.58743 29.8357C9.41059 29.8306 9.23656 29.7901 9.07557 29.7168C8.91458 29.6434 8.76988 29.5386 8.64996 29.4086C8.53004 29.2785 8.43733 29.1258 8.37728 28.9594C8.31723 28.793 8.29105 28.6162 8.30027 28.4395L8.65614 21.3936H10.5306Z" fill="#575B6D"/>
<path d="M31.9921 9.5413V28.9106C31.9932 29.0314 31.9705 29.1512 31.9251 29.2631C31.8796 29.375 31.8125 29.4768 31.7275 29.5626C31.6425 29.6485 31.5413 29.7166 31.4299 29.7631C31.3184 29.8096 31.1988 29.8335 31.078 29.8335C30.9404 29.8371 30.8043 29.804 30.6838 29.7375C30.5279 29.663 30.3964 29.5457 30.3047 29.3993C30.213 29.2528 30.1648 29.0834 30.1658 28.9106V21.1453L29.4257 20.5969L28.993 20.2797V16.3377C28.9948 13.8063 29.818 11.3438 31.3391 9.3204C31.3853 9.25965 31.4493 9.21492 31.5222 9.19256C31.5952 9.1702 31.6733 9.17132 31.7455 9.19578C31.8178 9.22023 31.8805 9.26678 31.9249 9.32884C31.9692 9.3909 31.9929 9.46533 31.9927 9.5416L31.9921 9.5413Z" fill="#DBD8DD"/>
<path d="M30.1659 21.259V21.1453L29.4258 20.5969V16.77C29.4275 14.2386 30.2508 11.7762 31.7719 9.75276C31.7962 9.71615 31.8289 9.68579 31.8671 9.66414C31.9054 9.64249 31.9482 9.63016 31.9922 9.62814V28.9106C31.9933 29.0314 31.9705 29.1512 31.9251 29.2631C31.8797 29.375 31.8126 29.4768 31.7276 29.5627C31.6426 29.6485 31.5414 29.7166 31.4299 29.7631C31.3185 29.8096 31.1989 29.8335 31.0781 29.8335C30.9405 29.8372 30.8044 29.804 30.6838 29.7375C30.6248 29.6146 30.5952 29.4796 30.5973 29.3433" fill="#EEEFEE"/>
<path d="M31.9921 21.3936V28.9106C31.9976 29.0339 31.9781 29.1571 31.9347 29.2727C31.8913 29.3883 31.8249 29.4939 31.7396 29.5832C31.6543 29.6724 31.5517 29.7435 31.4382 29.792C31.3247 29.8405 31.2025 29.8655 31.079 29.8655C30.9555 29.8655 30.8333 29.8405 30.7198 29.792C30.6062 29.7435 30.5037 29.6724 30.4184 29.5832C30.333 29.4939 30.2666 29.3883 30.2232 29.2727C30.1798 29.1571 30.1603 29.0339 30.1658 28.9106V21.3936H31.9921Z" fill="#575B6D"/>
<path d="M19.8497 29.8335C24.6576 29.8335 28.5552 25.9359 28.5552 21.128C28.5552 16.32 24.6576 12.4224 19.8497 12.4224C15.0418 12.4224 11.1442 16.32 11.1442 21.128C11.1442 25.9359 15.0418 29.8335 19.8497 29.8335Z" fill="#EEEFEE"/>
<path d="M19.8494 27.9051C18.509 27.9051 17.1988 27.5077 16.0844 26.763C14.9699 26.0184 14.1013 24.96 13.5884 23.7217C13.0755 22.4834 12.9412 21.1209 13.2027 19.8063C13.4642 18.4917 14.1096 17.2842 15.0573 16.3364C16.005 15.3886 17.2125 14.7432 18.5271 14.4817C19.8416 14.2201 21.2042 14.3543 22.4426 14.8672C23.6809 15.3801 24.7393 16.2486 25.484 17.363C26.2287 18.4774 26.6262 19.7876 26.6262 21.128C26.6243 22.9247 25.9097 24.6474 24.6392 25.9179C23.3687 27.1884 21.6461 27.9031 19.8494 27.9051ZM19.8494 14.9023C18.618 14.9023 17.4142 15.2674 16.3904 15.9516C15.3665 16.6357 14.5685 17.6081 14.0973 18.7458C13.6261 19.8834 13.5028 21.1353 13.743 22.343C13.9833 23.5507 14.5763 24.6601 15.447 25.5308C16.3178 26.4015 17.4272 26.9945 18.6349 27.2347C19.8427 27.4749 21.0945 27.3515 22.2322 26.8802C23.3698 26.409 24.3422 25.6109 25.0262 24.587C25.7103 23.5631 26.0754 22.3594 26.0754 21.128C26.0734 19.4773 25.4168 17.8948 24.2497 16.7277C23.0825 15.5605 21.5 14.9039 19.8494 14.902V14.9023Z" fill="#DBD8DD"/>
<path d="M22.5989 20.1862C22.5989 21.1417 21.9499 22.258 20.9706 23.1694C20.5808 23.5323 20.1516 23.8504 19.691 24.1179C19.5484 24.0347 19.4082 23.9445 19.2726 23.8516C17.882 22.8912 16.7815 21.4058 16.7815 20.1865C16.7814 19.8575 16.8884 19.5374 17.0863 19.2746C17.2842 19.0117 17.5622 18.8204 17.8784 18.7295C18.0151 18.6898 18.1567 18.6692 18.2991 18.6685C18.628 18.6681 18.9479 18.7758 19.2095 18.975C19.2309 19.0177 19.2501 19.036 19.2665 19.0226C19.4209 19.1499 19.5485 19.3066 19.6419 19.4836C19.6587 19.5168 19.6751 19.5478 19.6919 19.5835V19.5823C19.6967 19.5728 19.7013 19.5609 19.7062 19.5518C19.7438 19.468 19.7901 19.3883 19.8442 19.3142C20.0414 19.0315 20.3304 18.8258 20.662 18.7319C20.7985 18.6909 20.9403 18.6703 21.0828 18.671C21.4847 18.671 21.8702 18.8306 22.1545 19.1147C22.4388 19.3988 22.5986 19.7842 22.5989 20.1862Z" fill="#EF5261"/>
</g>
<defs>
<clipPath id="clip0_3_745">
<rect width="39" height="39" fill="white"/>
</clipPath>
</defs>
</svg>
