<svg width="39" height="39" viewBox="0 0 39 39" fill="none" xmlns="http://www.w3.org/2000/svg">
<path d="M0.746073 22.9867C0.492497 22.9867 0.276778 22.802 0.237397 22.5515C0.0605263 21.4262 -0.0200635 20.2688 0.00423533 19.0881C0.219345 8.65929 8.69628 0.200706 19.1254 0.00357307C30.0725 -0.203386 39.0467 8.68465 38.9998 19.5856C38.9956 20.5784 38.9171 21.5538 38.7696 22.5063C38.7267 22.7832 38.4869 22.9868 38.2067 22.9868H0.746073V22.9867Z" fill="#C47E4E"/>
<path d="M38.7751 22.4707C38.2742 25.7476 36.9576 28.7562 35.0391 31.2826C35.0356 31.2871 35.0321 31.2917 35.0286 31.2963C34.4634 32.0393 33.4265 32.2241 32.6259 31.744C29.6988 29.9888 26.2731 28.9797 22.6117 28.9797C17.1568 28.9797 12.2251 31.2194 8.68602 34.8296C8.37997 35.1417 7.88805 35.1734 7.54299 34.9051L7.53674 34.9002C3.69029 31.9079 0.99457 27.5062 0.224854 22.4707H38.7751Z" fill="#FFC14F"/>
<path d="M23.6133 19.1191H6.85547V7.38867H23.6133V19.1191Z" fill="#FFF68E"/>
<path d="M10.0276 19.1191H6.85547V7.38867H10.0276V19.1191Z" fill="#FFF36C"/>
<path d="M23.8337 7.50163C23.7794 7.8796 23.4382 8.15039 23.0564 8.15039H11.1974C10.8608 8.15039 10.588 8.42324 10.588 8.75977C10.588 9.19608 10.2212 9.54662 9.7792 9.52004C9.37214 9.49559 9.06456 9.13773 9.06456 8.72998V8.60742C9.06456 8.35499 8.85996 8.15039 8.60752 8.15039C8.35509 8.15039 8.15049 8.35499 8.15049 8.60742V12.0352C8.15049 12.4929 7.74663 12.8564 7.27581 12.7887C6.89785 12.7344 6.62706 12.3932 6.62706 12.0114V8.37891C6.62706 8.25269 6.52476 8.15039 6.39854 8.15039C5.94075 8.15039 5.57733 7.7466 5.64497 7.27571C5.69928 6.89782 6.04046 6.62695 6.42231 6.62695H23.0802C23.538 6.62695 23.9014 7.03074 23.8337 7.50163Z" fill="#FFFAC1"/>
<path d="M15.6975 11.0778C15.6975 10.8198 15.8281 10.5793 16.0446 10.4388L23.9475 5.31155H26.2327L34.1356 10.4388C34.3521 10.5793 34.4827 10.8198 34.4827 11.0778V31.1663C30.9254 34.9566 25.87 37.3242 20.2617 37.3242C18.6899 37.3242 17.1616 37.1383 15.6975 36.7871V11.0778Z" fill="#C2EAF2"/>
<path d="M17.9968 37.194C17.2154 37.1036 16.448 36.967 15.6975 36.787V11.0778C15.6975 10.8197 15.8281 10.5792 16.0446 10.4388L23.9475 5.31151V1.14247C23.9475 0.493177 24.4892 -0.0297433 25.1453 0.00118252C25.7599 0.0301278 26.2327 0.559522 26.2327 1.17476V5.31143L26.2469 5.32065C26.2469 6.02744 25.889 6.68618 25.2961 7.07092L18.3439 11.5814C18.1275 11.7218 17.9968 11.9623 17.9968 12.2204V37.194Z" fill="#7CD2E3"/>
<path d="M17.6565 12.1402C17.6565 11.866 17.7953 11.6106 18.0252 11.4615L24.6498 7.16358C24.9176 6.98983 25.2626 6.98983 25.5305 7.16358L32.155 11.4615C32.385 11.6106 32.5237 11.8661 32.5237 12.1402C32.5237 12.587 32.1615 12.9492 31.7147 12.9492H18.4655C18.0187 12.9492 17.6565 12.587 17.6565 12.1402ZM32.1429 14.4726H18.0374C17.827 14.4726 17.6565 14.6432 17.6565 14.8535V19.4238C17.6565 19.6341 17.827 19.8047 18.0374 19.8047H32.1429C32.3532 19.8047 32.5237 19.6341 32.5237 19.4238V14.8535C32.5237 14.6432 32.3532 14.4726 32.1429 14.4726ZM32.1429 21.3281H23.2324C23.0221 21.3281 22.8516 21.4987 22.8516 21.709V22.0898C22.8516 22.3001 23.0221 22.4707 23.2324 22.4707H32.1429C32.3532 22.4707 32.5237 22.3001 32.5237 22.0898V21.709C32.5237 21.4987 32.3532 21.3281 32.1429 21.3281ZM32.1429 23.6133H23.2324C23.0221 23.6133 22.8516 23.7838 22.8516 23.9941V24.375C22.8516 24.5853 23.0221 24.7559 23.2324 24.7559H32.1429C32.3532 24.7559 32.5237 24.5853 32.5237 24.375V23.9941C32.5237 23.7838 32.3532 23.6133 32.1429 23.6133ZM32.1429 25.8984H23.2324C23.0221 25.8984 22.8516 26.069 22.8516 26.2793V26.6601C22.8516 26.8705 23.0221 27.041 23.2324 27.041H32.1429C32.3532 27.041 32.5237 26.8705 32.5237 26.6601V26.2793C32.5237 26.069 32.3532 25.8984 32.1429 25.8984Z" fill="#97BFFD"/>
<path d="M25.0836 19.1953L21.61 37.2578C21.4168 38.2627 20.5414 38.999 19.518 39C19.512 39 19.5059 39 19.4999 39C14.9911 39 10.8402 37.4689 7.5372 34.8994L4.51721 19.1953H25.0836Z" fill="#2476ED"/>
<path d="M10.7875 36.9495C9.63429 36.3724 8.54617 35.6844 7.53727 34.8994L4.51721 19.1953H7.37328L10.7875 36.9495Z" fill="#0A66EA"/>
<path d="M25.0305 17.9004V18.6621C25.0305 19.2931 24.519 19.8047 23.888 19.8047H5.71289C5.08188 19.8047 4.57031 19.2931 4.57031 18.6621V17.9004C4.57031 17.2694 5.08188 16.7578 5.71289 16.7578H23.888C24.519 16.7578 25.0305 17.2694 25.0305 17.9004Z" fill="#DEF4F8"/>
<path d="M26.9879 19.4238C26.9879 20.0548 26.4763 20.5664 25.8453 20.5664H3.75549C3.12449 20.5664 2.61292 20.0548 2.61292 19.4238C2.61292 18.7928 3.12449 18.2812 3.75549 18.2812H25.8453C26.4764 18.2812 26.9879 18.7928 26.9879 19.4238ZM12.7595 30.9905C11.7992 30.0302 11.6382 28.5303 12.3727 27.3881L14.8004 23.6133L17.2281 27.3881C17.9627 28.5303 17.8017 30.0302 16.8414 30.9905C15.7142 32.1176 13.8867 32.1176 12.7595 30.9905Z" fill="#FFF5F5"/>
<path d="M10.3123 14.7995C9.60543 14.0926 9.4869 12.9886 10.0276 12.1478L11.8147 9.36915L13.6018 12.1478C14.1425 12.9886 14.024 14.0926 13.3171 14.7995C12.4874 15.6293 11.142 15.6293 10.3123 14.7995ZM13.9341 9.0787C13.5189 8.66349 13.4493 8.01496 13.7669 7.52107L14.8167 5.88885L15.8664 7.52107C16.184 8.01496 16.1144 8.66349 15.6992 9.0787C15.2118 9.56613 14.4215 9.56613 13.9341 9.0787Z" fill="#FFC14F"/>
<path d="M13.6114 14.4318C13.5286 14.5628 13.4304 14.6862 13.3172 14.7995C12.4874 15.6293 11.1422 15.6293 10.3124 14.7995C9.60555 14.0926 9.48703 12.9887 10.0278 12.1478L10.4907 11.4281C10.393 12.2344 10.6602 13.0671 11.265 13.6719C11.9039 14.3109 12.7824 14.5641 13.6114 14.4318Z" fill="#FFB52D"/>
<path d="M32.373 30.0879V32.4418C32.373 33.0728 31.8615 33.5843 31.2305 33.5843H19.8047C19.1737 33.5843 18.6621 33.0728 18.6621 32.4418V30.0879C18.6621 29.4569 19.1737 28.9453 19.8047 28.9453H20.1855V27.8027C20.1855 27.1717 20.6971 26.6602 21.3281 26.6602H22.4707V25.5176C22.4707 24.8865 22.9823 24.375 23.6133 24.375H27.4219C28.0529 24.375 28.5645 24.8865 28.5645 25.5176V26.6602H29.707C30.338 26.6602 30.8496 27.1717 30.8496 27.8027V28.9453H31.2305C31.8615 28.9453 32.373 29.4568 32.373 30.0879Z" fill="#FFE7C0"/>
<path d="M32.3731 30.0879V32.4418C32.3731 33.0728 31.8615 33.5843 31.2305 33.5843H22.7219C22.0909 33.5843 21.5793 33.0728 21.5793 32.4418V30.0879C21.5793 29.4569 22.0909 28.9453 22.7219 28.9453H23.1028V27.8027C23.1028 27.1717 23.6144 26.6602 24.2454 26.6602H25.3879V25.5176C25.3879 24.8865 25.8995 24.375 26.5305 24.375H27.4219C28.0529 24.375 28.5645 24.8865 28.5645 25.5176V26.6602H29.707C30.338 26.6602 30.8496 27.1717 30.8496 27.8027V28.9453H31.2305C31.8615 28.9453 32.3731 29.4568 32.3731 30.0879Z" fill="#FFF5F5"/>
<path d="M35.0391 30.8496V31.2826C32.1755 35.0533 27.9709 37.7499 23.1359 38.6616C21.218 36.9197 20.0138 34.4062 20.0138 31.6113V30.8496C20.0138 30.6392 20.1843 30.4688 20.3947 30.4688H34.6582C34.8685 30.4688 35.0391 30.6392 35.0391 30.8496Z" fill="#35E298"/>
<path d="M24.0314 38.4708C22.5808 38.816 21.0675 38.9992 19.5116 39C17.3664 37.2541 15.9961 34.5928 15.9961 31.6113V30.8496C15.9961 30.6392 16.1666 30.4688 16.377 30.4688H20.7414V30.8196C20.7414 33.8322 22.0052 36.5496 24.0314 38.4708Z" fill="#1ED688"/>
</svg>
