<svg width="39" height="39" viewBox="0 0 39 39" fill="none" xmlns="http://www.w3.org/2000/svg">
<path d="M19.5 1.67578C9.19318 1.67578 0.837891 10.0311 0.837891 20.3379C0.837891 25.1792 2.68163 29.5897 5.70497 32.9062L6.16482 32.9824H32.8353L33.2951 32.9062C36.3184 29.5897 38.1621 25.1792 38.1621 20.3379C38.1621 10.0311 29.8068 1.67578 19.5 1.67578Z" fill="#FEE97D"/>
<path d="M6.36755 31.5273C6.11184 31.9725 6.04474 32.4955 6.16333 32.9824H9.55451L8.55475 26.0004C8.31199 26.097 8.08447 26.2433 7.88794 26.4397C7.50655 26.8211 7.31376 27.3196 7.30888 27.8194C6.80897 27.8243 6.31057 28.0171 5.92918 28.3985C5.15642 29.1713 5.15642 30.4241 5.92918 31.1969C6.06256 31.3302 6.21049 31.4399 6.36755 31.5273Z" fill="#0AB69F"/>
<path d="M6.3676 31.5273C6.12515 31.9493 6.05217 32.4413 6.14617 32.9063H8.23899C7.69063 32.3351 7.55101 31.5167 7.82157 30.8199C7.88144 30.6657 7.83155 30.4894 7.70053 30.3883C7.6348 30.3375 7.5715 30.2821 7.51117 30.2217C6.86104 29.5716 6.75806 28.5816 7.20191 27.8236C6.69842 27.8556 6.20482 28.0786 5.83973 28.4939C5.23866 29.1778 5.18618 30.2062 5.71671 30.9461C5.89732 31.198 6.12119 31.3903 6.3676 31.5273Z" fill="#01998D"/>
<path d="M17.8873 15.8438V11.6587C17.6115 11.6853 17.3401 11.7685 17.0929 11.9106C17.0056 11.7535 16.8958 11.6056 16.7624 11.4722C15.9897 10.6994 14.7369 10.6994 13.9641 11.4722C13.5827 11.8536 13.3899 12.352 13.385 12.8519C12.8851 12.8568 12.3867 13.0495 12.0053 13.431C11.3509 14.0854 11.2509 15.0839 11.7048 15.8438H17.8873V15.8438Z" fill="#0AB69F"/>
<path d="M13.461 15.7676C13.2066 15.1003 13.3287 14.3216 13.8108 13.7655C14.1318 13.3953 14.5542 13.1752 14.9958 13.105C15.1597 13.0789 15.2876 12.9541 15.3135 12.7902C15.3762 12.3913 15.5611 12.008 15.8685 11.7006C16.0612 11.5079 16.2837 11.3633 16.5212 11.2667C15.7477 10.7072 14.6609 10.7754 13.9642 11.4721C13.5828 11.8535 13.39 12.3519 13.3851 12.8518C12.8408 12.8571 12.2983 13.0852 11.9066 13.537C11.3681 14.1581 11.2802 15.0564 11.6632 15.7676H13.461Z" fill="#01998D"/>
<path d="M21.0959 15.8437C21.1843 15.8437 21.2682 15.8821 21.3261 15.9489C21.384 16.0157 21.4101 16.1042 21.3975 16.1917L18.9932 32.9824H31.9289V8.774C31.9289 8.1014 31.5741 7.47862 30.9954 7.13577L28.275 5.52352V3.99307H21.4652V5.52359L18.7446 7.13577C18.166 7.4787 17.8112 8.1014 17.8112 8.774V15.8437H21.0959Z" fill="white"/>
<path d="M31.6162 34.4297H31.929V34.1547C31.8258 34.2475 31.7215 34.3391 31.6162 34.4297Z" fill="white"/>
<path d="M18.9537 15.7676V10.9687C18.9537 10.7584 19.1243 10.5879 19.3346 10.5879H20.1855V10.3736C20.1855 9.70101 20.5403 9.07823 21.119 8.73538L23.2795 7.45508C23.6267 7.24934 23.8396 6.87572 23.8396 6.47216V4.06924H21.4652V5.52359L18.7446 7.13577C18.166 7.4787 17.8112 8.1014 17.8112 8.774V15.7676H18.9537Z" fill="#F2FBFF"/>
<path d="M21.0959 15.8438C21.1843 15.8438 21.2682 15.8821 21.3261 15.9489C21.384 16.0157 21.4101 16.1042 21.3975 16.1917L18.9932 32.9824H30.7864V10.9688C30.7864 10.7584 30.6158 10.5879 30.4055 10.5879H19.3346C19.1243 10.5879 18.9537 10.7584 18.9537 10.9688V15.8438H21.0959Z" fill="#97D729"/>
<path d="M20.5508 22.6433L19.0812 32.9063H22.1401V24.3227C21.4879 23.8954 20.9424 23.3197 20.5508 22.6433Z" fill="#97D729"/>
<path d="M21.096 15.7676C21.3278 15.7676 21.5058 15.9729 21.473 16.2024L21.4245 16.5411C21.6448 16.3306 21.8841 16.1399 22.1401 15.9723V10.9688C22.1401 10.7584 22.3106 10.5879 22.5209 10.5879H19.3347C19.1244 10.5879 18.9539 10.7584 18.9539 10.9688V15.7676H21.096Z" fill="#8BC727"/>
<path d="M29.6037 0.380859V3.68839C29.6037 3.89871 29.4332 4.06925 29.2229 4.06925H20.5173C20.307 4.06925 20.1365 3.89871 20.1365 3.68839V0.380859C20.1365 0.170549 20.307 0 20.5173 0H29.2229C29.4332 0 29.6037 0.170549 29.6037 0.380859Z" fill="#7A6D79"/>
<path d="M24.1245 3.68839V0.380859C24.1245 0.170549 24.2951 0 24.5054 0H20.5173C20.307 0 20.1365 0.170549 20.1365 0.380859V3.68839C20.1365 3.89871 20.307 4.06925 20.5173 4.06925H24.5054C24.2951 4.06925 24.1245 3.89871 24.1245 3.68839Z" fill="#685E68"/>
<path d="M23.6786 30.2402H20.9473C20.737 30.2402 20.5664 30.0697 20.5664 29.8594V29.4785C20.5664 29.2682 20.737 29.0977 20.9473 29.0977H23.6786C23.8889 29.0977 24.0594 29.2682 24.0594 29.4785V29.8594C24.0594 30.0697 23.8889 30.2402 23.6786 30.2402Z" fill="white"/>
<path d="M22.166 29.8594V29.4785C22.166 29.2682 22.3366 29.0977 22.5469 29.0977H20.9473C20.737 29.0977 20.5664 29.2682 20.5664 29.4785V29.8594C20.5664 30.0697 20.737 30.2402 20.9473 30.2402H22.5469C22.3366 30.2402 22.166 30.0697 22.166 29.8594Z" fill="#F2FBFF"/>
<path d="M22.5251 31.9922H20.9473C20.737 31.9922 20.5664 31.8216 20.5664 31.6113V31.2305C20.5664 31.0202 20.737 30.8496 20.9473 30.8496H22.5251C22.7354 30.8496 22.9059 31.0202 22.9059 31.2305V31.6113C22.9059 31.8216 22.7355 31.9922 22.5251 31.9922Z" fill="white"/>
<path d="M21.5566 31.6113V31.2305C21.5566 31.0202 21.7272 30.8496 21.9375 30.8496H20.9473C20.737 30.8496 20.5664 31.0202 20.5664 31.2305V31.6113C20.5664 31.8216 20.737 31.9922 20.9473 31.9922H21.9375C21.7272 31.9922 21.5566 31.8216 21.5566 31.6113Z" fill="#F2FBFF"/>
<path d="M21.3352 16.6268L20.489 22.5361C21.3357 24.0855 22.9801 25.1367 24.8701 25.1367C27.6256 25.1367 29.8594 22.903 29.8594 20.1475C29.8594 17.3919 27.6256 15.1582 24.8701 15.1582C23.4887 15.1582 22.2387 15.7197 21.3352 16.6268Z" fill="white"/>
<path d="M22.9855 20.9038C22.3346 20.8492 21.8232 20.3046 21.8232 19.6396C21.8232 19.0533 22.2207 18.5602 22.7608 18.4142C22.7292 18.3033 22.7119 18.1864 22.7119 18.0654C22.7119 17.3642 23.2803 16.7958 23.9815 16.7958C24.0577 16.7958 24.1318 16.8037 24.2043 16.8165C24.7886 16.1659 25.5409 15.6691 26.3936 15.3959C25.9133 15.2419 25.4016 15.1581 24.8702 15.1581C23.5334 15.1581 22.3203 15.6849 21.4245 16.5409L20.5508 22.6431C21.4137 24.1335 23.0242 25.1367 24.8701 25.1367C25.4016 25.1367 25.9132 25.0529 26.3935 24.8989C24.6158 24.3294 23.2726 22.7903 22.9855 20.9038Z" fill="#F2FBFF"/>
<path d="M25.8122 20.4916L25.7588 20.4393L25.7055 20.4916C25.481 20.7118 25.1843 20.833 24.8701 20.833C24.556 20.833 24.2593 20.7117 24.0348 20.4916L23.9814 20.4393L23.9281 20.4916C23.7888 20.6282 23.6217 20.7265 23.4399 20.7817L24.148 21.5348C24.1878 21.5771 24.21 21.6331 24.21 21.6913V23.2705C24.21 23.3967 24.3123 23.499 24.4385 23.499H25.251C25.3772 23.499 25.4795 23.3967 25.4795 23.2705V21.7569C25.4795 21.6987 25.5017 21.6427 25.5415 21.6004L26.3089 20.7842C26.1238 20.7296 25.9536 20.6303 25.8122 20.4916Z" fill="#97D729"/>
<path d="M26.9794 18.4142C27.011 18.3033 27.0283 18.1864 27.0283 18.0655C27.0283 17.3643 26.4599 16.7959 25.7588 16.7959C25.4127 16.7959 25.0991 16.9345 24.8701 17.1592C24.6411 16.9346 24.3275 16.7959 23.9814 16.7959C23.2802 16.7959 22.7118 17.3643 22.7118 18.0655C22.7118 18.1865 22.7291 18.3034 22.7607 18.4142C22.2206 18.5602 21.8231 19.0534 21.8231 19.6396C21.8231 20.3408 22.3915 20.9092 23.0927 20.9092C23.4388 20.9092 23.7523 20.7705 23.9814 20.5459C24.2103 20.7705 24.5239 20.9092 24.8701 20.9092C25.2162 20.9092 25.5297 20.7705 25.7588 20.5459C25.9877 20.7705 26.3013 20.9092 26.6475 20.9092C27.3486 20.9092 27.917 20.3408 27.917 19.6396C27.917 19.0534 27.5196 18.5602 26.9794 18.4142Z" fill="#0AB69F"/>
<path d="M23.3848 19.6396C23.3848 19.0533 23.7822 18.5602 24.3224 18.4142C24.2908 18.3033 24.2735 18.1864 24.2735 18.0654C24.2735 17.659 24.4652 17.298 24.7623 17.0657C24.5469 16.8971 24.2763 16.7959 23.9815 16.7959C23.2803 16.7959 22.7119 17.3643 22.7119 18.0655C22.7119 18.1865 22.7292 18.3034 22.7608 18.4143C22.2207 18.5603 21.8232 19.0535 21.8232 19.6397C21.8232 20.3409 22.3916 20.9093 23.0928 20.9093C23.3876 20.9093 23.6582 20.808 23.8736 20.6395C23.5765 20.407 23.3848 20.0461 23.3848 19.6396Z" fill="#01998D"/>
<path d="M9.47768 32.9824H19.0702L21.4729 16.2024C21.5057 15.9729 21.3277 15.7676 21.0959 15.7676H7.45188C7.22009 15.7676 7.042 15.9729 7.07483 16.2024L9.47768 32.9824Z" fill="#C8EFFE"/>
<path d="M9.46678 32.9062H10.621L8.73866 19.7609C8.71893 19.6232 8.8258 19.5 8.96489 19.5H10.6832L10.211 16.2024C10.1782 15.9729 10.3562 15.7676 10.588 15.7676H7.45188C7.22009 15.7676 7.042 15.9729 7.07483 16.2024L9.46678 32.9062Z" fill="#99E6FC"/>
<path d="M10.6319 32.9824H17.916L19.8093 19.7609C19.829 19.6232 19.7221 19.5 19.583 19.5H8.96491C8.82582 19.5 8.71895 19.6232 8.73868 19.7609L10.6319 32.9824Z" fill="#97D729"/>
<path d="M10.621 32.9062H13.0214L11.1018 19.5H8.96491C8.82582 19.5 8.71895 19.6232 8.73868 19.7609L10.621 32.9062Z" fill="#8BC727"/>
<path d="M28.4121 31.9922C29.1062 31.9922 29.6689 31.4295 29.6689 30.7354C29.6689 30.0412 29.1062 29.4785 28.4121 29.4785C27.718 29.4785 27.1553 30.0412 27.1553 30.7354C27.1553 31.4295 27.718 31.9922 28.4121 31.9922Z" fill="white"/>
<path d="M28.1836 30.7354C28.1836 30.2246 28.4887 29.7859 28.9263 29.5893C28.7692 29.5187 28.5955 29.4785 28.4121 29.4785C27.718 29.4785 27.1553 30.0412 27.1553 30.7354C27.1553 31.4295 27.718 31.9922 28.4121 31.9922C28.5955 31.9922 28.7692 31.952 28.9263 31.8814C28.4887 31.6848 28.1836 31.2461 28.1836 30.7354Z" fill="#F2FBFF"/>
<path d="M8.58188 35.1152L8.20178 35.1914C11.3379 37.5807 15.253 39 19.5 39C23.7469 39 27.6619 37.5807 30.7982 35.1914L30.425 35.1152H8.58188Z" fill="#EA9B58"/>
<path d="M8.20179 35.1914H30.7981C31.6979 34.5059 32.5341 33.741 33.295 32.9062H5.70496C6.46584 33.741 7.30198 34.5059 8.20179 35.1914Z" fill="#D88A55"/>
<path d="M9.14549 32.9062H5.70496C6.46591 33.741 7.30205 34.5059 8.20187 35.1914H30.7982C31.1793 34.901 31.5484 34.5955 31.9058 34.2773H11.7702C11.1535 34.2773 10.5558 34.0635 10.0791 33.6723L9.14549 32.9062Z" fill="#C57A44"/>
</svg>
