<svg width="39" height="39" viewBox="0 0 39 39" fill="none" xmlns="http://www.w3.org/2000/svg">
<g clip-path="url(#clip0_3_791)">
<path d="M35.2143 30.4045C37.079 27.5 38.1621 24.0459 38.1621 20.3379C38.1621 10.0311 29.8068 1.67578 19.5 1.67578C9.19318 1.67578 0.837891 10.0311 0.837891 20.3379C0.837891 24.2731 2.0574 27.9226 4.13697 30.9325L35.2143 30.4045Z" fill="#FFDD40"/>
<path d="M19.5 31.7637C27.0723 31.7637 33.2109 25.6251 33.2109 18.0527C33.2109 10.4804 27.0723 4.3418 19.5 4.3418C11.9277 4.3418 5.78906 10.4804 5.78906 18.0527C5.78906 25.6251 11.9277 31.7637 19.5 31.7637Z" fill="#FFC839"/>
<path d="M29.6238 19.2064C28.2291 18.7183 27.8487 17.7505 28.4516 15.8487C29.0545 13.9469 26.2577 11.954 26.2577 11.954H19.5H12.7423C12.7423 11.954 9.94538 13.9468 10.5484 15.8487C11.1513 17.7506 10.7709 18.7183 9.37622 19.2064C7.98151 19.6946 4.68502 22.8221 8.15062 27.3865H19.5H30.8494C34.315 22.8221 31.0184 19.6946 29.6238 19.2064Z" fill="#003060"/>
<path d="M19.5581 38.9995L19.5582 38.9992L32.1513 26.4062C31.557 26.0828 30.7528 25.7773 29.8683 25.4988H9.13166C7.85509 25.9007 6.74474 26.359 6.19333 26.8458C5.56605 27.3996 4.83 29.0345 4.13623 30.9324C7.50333 35.806 13.1282 39 19.4999 39C19.5194 39 19.5386 38.9996 19.5581 38.9995Z" fill="#FF4155"/>
<path d="M13.2093 31.579C13.3993 28.9419 14.8231 26.8785 16.6288 25.4988H9.13166C7.85509 25.9007 6.74474 26.359 6.19333 26.8458C5.56605 27.3996 4.83 29.0345 4.13623 30.9324C7.50341 35.806 13.1282 39 19.5 39C15.6898 39 12.9249 35.5269 13.2093 31.579Z" fill="#F32155"/>
<path d="M9.20249 35.9021C9.19678 35.8859 8.53454 34.0112 9.56088 31.8178C9.75223 31.4089 9.22215 31.0444 8.91007 31.3706C8.25674 32.0536 7.61271 33.0593 7.34192 34.494C7.93118 35.0007 8.55267 35.4711 9.20249 35.9021Z" fill="#E80054"/>
<path d="M10.5995 25.0768C10.1007 25.2088 9.60474 25.3499 9.13171 25.4988C9.56094 27.0478 10.641 28.447 12.2779 29.5382C14.2518 30.8542 16.8474 31.579 19.5864 31.579C22.3254 31.579 24.9209 30.8542 26.8948 29.5382C28.514 28.4588 29.5887 27.0782 30.0272 25.5493C29.507 25.3818 28.9557 25.2236 28.4009 25.0768H10.5995Z" fill="#FF7186"/>
<path d="M23.1958 23.9618V14.7583H15.8041V23.9618C15.6907 23.9806 13.1082 24.4126 10.5989 25.0768C11.3847 27.9097 15.1094 30.0555 19.5863 30.0555C24.0406 30.0555 27.75 27.9313 28.5614 25.1197C26.0029 24.4314 23.3117 23.981 23.1958 23.9618Z" fill="#FEB98A"/>
<path d="M23.1958 19.8133V14.7583H15.8041V23.9618C15.6907 23.9806 13.1082 24.4126 10.5989 25.0768C11.0112 26.563 12.2333 27.8596 13.9477 28.7569C15.0805 26.3538 17.3144 24.7042 19.4999 23.9617C22.4577 22.957 23.1958 19.8133 23.1958 19.8133Z" fill="#FCA870"/>
<path d="M25.8224 2.77441C24.3155 1.0741 22.1951 0 19.5863 0C16.9775 0 15.8551 0.429457 14.8049 0.914062C13.7547 1.39867 13.6845 3.50947 13.6845 3.50947C12.3762 4.93502 11.5774 6.83559 11.5774 8.923V11.2139H27.5953V8.923C27.5953 7.17036 27.3294 4.47472 25.8224 2.77441Z" fill="#024788"/>
<path d="M11.5774 8.923V11.2139H14.8411V6.46729C14.0215 5.93165 13.638 4.63025 13.6845 3.50946C12.3762 4.93494 11.5774 6.83558 11.5774 8.923Z" fill="#003060"/>
<path d="M25.2173 12.1545C25.2173 12.1545 26.0083 10.2285 27.4184 10.6756C28.8285 11.1228 27.3843 15.2965 24.6326 15.5595L25.2173 12.1545Z" fill="#FEB98A"/>
<path d="M13.7827 12.1545C13.7827 12.1545 12.9917 10.2285 11.5816 10.6756C10.1715 11.1228 11.6157 15.2965 14.3674 15.5595L13.7827 12.1545Z" fill="#FCA870"/>
<path d="M14.841 6.4673C14.0548 6.72925 13.4753 7.40261 13.2847 8.20912C13.0903 9.03185 12.8275 10.3053 12.8275 11.1786C12.8275 16.0921 15.8149 21.8545 19.4999 21.8545C23.185 21.8545 26.1724 16.0921 26.1724 11.1786C26.1724 11.0511 26.1699 11.0199 26.1659 10.8943C19.9647 10.8941 17.6206 5.54128 14.841 6.4673Z" fill="#FFC9A4"/>
<path d="M21.0234 21.5234C18.0724 20.2321 15.8744 15.3932 15.8744 11.1786C15.8744 9.50503 16.222 7.99264 16.8247 6.72445C16.1491 6.3848 15.5075 6.24526 14.841 6.4673C14.0548 6.72925 13.4753 7.40261 13.2847 8.20912C13.0903 9.03185 12.8275 10.3053 12.8275 11.1786C12.8275 16.0921 15.8149 21.8545 19.4999 21.8545C20.0241 21.8545 20.5341 21.7375 21.0234 21.5234Z" fill="#FEB98A"/>
<path d="M18.4346 14.6591L19.0772 13.6352C19.2729 13.3235 19.7271 13.3235 19.9228 13.6352L20.5654 14.6591C20.7741 14.9915 20.5351 15.4237 20.1426 15.4237H18.8575C18.4649 15.4236 18.226 14.9915 18.4346 14.6591Z" fill="#FEB98A"/>
<path d="M17.9296 18.3475H21.0704C21.3836 18.0716 21.6233 17.7146 21.7567 17.3092C21.8774 16.9428 21.5991 16.5663 21.2133 16.5663H17.7867C17.4009 16.5663 17.1227 16.9428 17.2433 17.3092C17.3768 17.7146 17.6165 18.0716 17.9296 18.3475Z" fill="#003060"/>
<path d="M21.0703 18.3475C20.6519 18.7169 20.1018 18.9415 19.4999 18.9415C18.898 18.9415 18.3479 18.717 17.9296 18.3475C18.3485 17.9782 18.898 17.7535 19.4999 17.7535C20.1018 17.7535 20.6513 17.9782 21.0703 18.3475Z" fill="#FF4155"/>
<path d="M23.6894 12.3463C23.6927 12.0801 23.585 11.8128 23.3663 11.6197C23.0102 11.3053 22.4645 11.3053 22.1083 11.6197C21.8897 11.8128 21.782 12.0801 21.7852 12.3463C21.7894 12.692 22.214 12.8579 22.4584 12.6134C22.6125 12.4594 22.8621 12.4594 23.0162 12.6134C23.2607 12.858 23.6853 12.6921 23.6894 12.3463Z" fill="#003060"/>
<path d="M15.3106 12.3463C15.3073 12.0801 15.4151 11.8128 15.6337 11.6197C15.9898 11.3053 16.5356 11.3053 16.8917 11.6197C17.1104 11.8128 17.218 12.0801 17.2148 12.3463C17.2107 12.692 16.7861 12.8579 16.5416 12.6134C16.3876 12.4594 16.1379 12.4594 15.9839 12.6134C15.7394 12.858 15.3148 12.6921 15.3106 12.3463Z" fill="#003060"/>
<path d="M17.0244 10.5854H15.501C15.1855 10.5854 14.9297 10.3297 14.9297 10.0142C14.9297 9.69866 15.1855 9.44287 15.501 9.44287H17.0244C17.3399 9.44287 17.5957 9.69866 17.5957 10.0142C17.5957 10.3297 17.3399 10.5854 17.0244 10.5854Z" fill="#003060"/>
<path d="M23.499 10.5854H21.9756C21.6601 10.5854 21.4043 10.3297 21.4043 10.0142C21.4043 9.69866 21.6601 9.44287 21.9756 9.44287H23.499C23.8145 9.44287 24.0703 9.69866 24.0703 10.0142C24.0703 10.3297 23.8145 10.5854 23.499 10.5854Z" fill="#003060"/>
<path d="M35.2168 30.4045C35.6737 28.8593 35.5985 27.2101 34.9879 25.6861C34.2746 23.9058 32.9229 22.5281 31.1819 21.807C29.4407 21.0858 27.5108 21.1042 25.7475 21.8587C24.0015 22.6058 22.6422 23.9772 21.9202 25.7204C18.9952 32.782 19.5244 38.6571 19.5583 38.9993C26.1334 38.9791 31.9085 35.5592 35.2168 30.4045Z" fill="white"/>
<path d="M21.9202 25.7204C18.9952 32.782 19.5244 38.6572 19.5583 38.9993C22.265 38.991 24.8362 38.4068 27.1556 37.3623C23.0421 34.3054 20.2421 29.7717 21.9202 25.7204Z" fill="#D9F9FC"/>
<path d="M33.9082 30.6859C32.6577 33.7048 29.8213 33.6305 26.8025 32.38C23.7836 31.1295 21.7255 29.1764 22.9759 26.1576C24.2263 23.1387 27.7258 21.6121 30.7447 22.8625C33.7636 24.113 35.1587 27.6671 33.9082 30.6859Z" fill="#FFC9A4"/>
<path d="M25.0869 27.0321C26.1877 24.3745 29.0315 22.8744 31.756 23.4064C31.443 23.1956 31.1058 23.0122 30.7445 22.8626C27.7256 21.6122 24.2261 23.1387 22.9756 26.1576C21.7252 29.1764 23.7834 31.1295 26.8022 32.38C27.1634 32.5296 27.5219 32.6618 27.8756 32.7745C25.45 31.5211 23.9861 29.6897 25.0869 27.0321Z" fill="#FEB98A"/>
<path d="M27.0917 28.9981L28.9893 29.7841C29.2475 29.6958 29.4818 29.5401 29.6638 29.3285C29.8284 29.1373 29.7545 28.8402 29.5214 28.7436L27.4512 27.8861C27.2181 27.7895 26.9557 27.9474 26.9369 28.199C26.9161 28.4773 26.9715 28.7531 27.0917 28.9981Z" fill="#003060"/>
<path d="M28.9892 29.7841C28.644 29.9026 28.2555 29.9006 27.8917 29.75C27.5281 29.5993 27.2519 29.326 27.0916 28.9981C27.4371 28.8798 27.8253 28.8816 28.189 29.0322C28.5528 29.1829 28.8285 29.4561 28.9892 29.7841Z" fill="#FF4155"/>
<path d="M31.4599 28.2953C31.5285 28.1353 31.5303 27.9469 31.4465 27.7755C31.3101 27.4964 30.9803 27.3598 30.6865 27.4607C30.506 27.5226 30.3741 27.6572 30.3094 27.8188C30.2255 28.0287 30.4404 28.2352 30.6493 28.1487C30.7809 28.0942 30.9317 28.1567 30.9863 28.2883C31.0728 28.4971 31.3709 28.5031 31.4599 28.2953Z" fill="#003060"/>
<path d="M26.3975 26.1985C26.4622 26.0368 26.5941 25.9022 26.7746 25.8403C27.0685 25.7395 27.3982 25.876 27.5346 26.1551C27.6184 26.3265 27.6166 26.515 27.548 26.675C27.459 26.8828 27.1609 26.8768 27.0744 26.6679C27.0199 26.5363 26.869 26.4738 26.7374 26.5284C26.5286 26.6149 26.3136 26.4084 26.3975 26.1985Z" fill="#003060"/>
<path d="M27.8669 25.5607L26.9598 25.185C26.7655 25.1045 26.6732 24.8817 26.7537 24.6874C26.8342 24.4931 27.057 24.4007 27.2513 24.4813L28.1584 24.8569C28.3527 24.9375 28.445 25.1603 28.3645 25.3546C28.284 25.5489 28.0612 25.6412 27.8669 25.5607Z" fill="#003060"/>
<path d="M31.7787 27.181L30.8717 26.8053C30.6774 26.7248 30.5851 26.502 30.6656 26.3077C30.7461 26.1134 30.9689 26.0211 31.1632 26.1016L32.0703 26.4773C32.2646 26.5578 32.3569 26.7806 32.2764 26.9749C32.1959 27.1692 31.9731 27.2615 31.7787 27.181Z" fill="#003060"/>
<path d="M25.2512 27.7366C25.6719 27.7366 26.0129 27.3956 26.0129 26.9749C26.0129 26.5542 25.6719 26.2132 25.2512 26.2132C24.8305 26.2132 24.4895 26.5542 24.4895 26.9749C24.4895 27.3956 24.8305 27.7366 25.2512 27.7366Z" fill="#FCA870"/>
<path d="M31.7212 30.4166C32.1419 30.4166 32.4829 30.0755 32.4829 29.6548C32.4829 29.2342 32.1419 28.8931 31.7212 28.8931C31.3005 28.8931 30.9595 29.2342 30.9595 29.6548C30.9595 30.0755 31.3005 30.4166 31.7212 30.4166Z" fill="#FCA870"/>
</g>
<defs>
<clipPath id="clip0_3_791">
<rect width="39" height="39" fill="white"/>
</clipPath>
</defs>
</svg>
