<svg width="39" height="39" viewBox="0 0 39 39" fill="none" xmlns="http://www.w3.org/2000/svg">
<g clip-path="url(#clip0_3_428)">
<path d="M19.5 39C30.2696 39 39 30.2696 39 19.5C39 8.73045 30.2696 0 19.5 0C8.73045 0 0 8.73045 0 19.5C0 30.2696 8.73045 39 19.5 39Z" fill="#FFCE00"/>
<path d="M14.5339 32.2385L21.2191 38.9237C30.7052 38.0948 38.2445 30.4752 38.946 20.9532L21.412 3.41919L14.5339 32.2385Z" fill="#FF9D00"/>
<path d="M30.6564 18.2106C30.6564 24.3722 25.6615 34.4297 19.4999 34.4297C13.3384 34.4297 8.34351 24.3722 8.34351 18.2106C8.34351 12.0491 13.3384 11.4128 19.4999 11.4128C25.6615 11.4128 30.6564 12.0491 30.6564 18.2106Z" fill="#FE6A16"/>
<path d="M19.5 11.4128C19.4898 11.4128 19.4795 11.4129 19.5 11.4129V34.4289C19.4795 34.4289 19.4898 34.4297 19.5 34.4297C25.6616 34.4297 30.6565 24.3722 30.6565 18.2106C30.6565 12.0491 25.6616 11.4128 19.5 11.4128Z" fill="#F24500"/>
<path d="M23.3817 8.8833H21.412V3.41919H17.588V8.88338H15.6183C13.0341 8.88338 10.9393 10.9783 10.9393 13.5623V15.9738H13.3509C14.3607 15.9738 15.2951 15.6528 16.0598 15.1088C16.2825 16.0673 16.7663 16.9775 17.5133 17.7246L19.5 19.7112L21.4866 17.7246C22.2337 16.9775 22.7175 16.0673 22.9402 15.1088C23.7048 15.6528 24.6391 15.9738 25.6491 15.9738H28.0606V13.5623C28.0606 10.9782 25.9658 8.8833 23.3817 8.8833Z" fill="#079E59"/>
<path d="M19.5 19.7112L21.4867 17.7246C22.2338 16.9775 22.7175 16.0673 22.9403 15.1088C23.7049 15.6528 24.6392 15.9738 25.6492 15.9738H28.0607V13.5623C28.0607 10.9782 25.9658 8.88338 23.3817 8.88338H21.412V3.41919H19.4691L19.5 19.7112Z" fill="#127C3C"/>
<path d="M23.7994 28.7988C24.4994 28.7988 25.0669 28.2314 25.0669 27.5313C25.0669 26.8313 24.4994 26.2638 23.7994 26.2638C23.0993 26.2638 22.5319 26.8313 22.5319 27.5313C22.5319 28.2314 23.0993 28.7988 23.7994 28.7988Z" fill="#BA3918"/>
<path d="M15.2006 28.7988C15.9006 28.7988 16.4681 28.2314 16.4681 27.5313C16.4681 26.8313 15.9006 26.2638 15.2006 26.2638C14.5006 26.2638 13.9331 26.8313 13.9331 27.5313C13.9331 28.2314 14.5006 28.7988 15.2006 28.7988Z" fill="#F24500"/>
<path d="M19.5 33.2416C20.2001 33.2416 20.7675 32.6742 20.7675 31.9741C20.7675 31.2741 20.2001 30.7066 19.5 30.7066C18.8 30.7066 18.2325 31.2741 18.2325 31.9741C18.2325 32.6742 18.8 33.2416 19.5 33.2416Z" fill="#F24500"/>
<path d="M19.5 33.2416C20.2 33.2416 20.7675 32.6741 20.7675 31.9741C20.7675 31.274 20.2 30.7066 19.5 30.7066V33.2416Z" fill="#BA3918"/>
<path d="M25.7334 20.5083C26.4335 20.5083 27.0009 19.9408 27.0009 19.2408C27.0009 18.5408 26.4335 17.9733 25.7334 17.9733C25.0334 17.9733 24.4659 18.5408 24.4659 19.2408C24.4659 19.9408 25.0334 20.5083 25.7334 20.5083Z" fill="#BA3918"/>
<path d="M13.2665 20.5083C13.9665 20.5083 14.534 19.9408 14.534 19.2408C14.534 18.5408 13.9665 17.9733 13.2665 17.9733C12.5665 17.9733 11.999 18.5408 11.999 19.2408C11.999 19.9408 12.5665 20.5083 13.2665 20.5083Z" fill="#F24500"/>
<path d="M19.5 24.6077C20.2001 24.6077 20.7675 24.0402 20.7675 23.3402C20.7675 22.6402 20.2001 22.0727 19.5 22.0727C18.8 22.0727 18.2325 22.6402 18.2325 23.3402C18.2325 24.0402 18.8 24.6077 19.5 24.6077Z" fill="#F24500"/>
<path d="M19.5 24.6077C20.2 24.6077 20.7675 24.0402 20.7675 23.3402C20.7675 22.6402 20.2 22.0727 19.5 22.0727V24.6077Z" fill="#BA3918"/>
</g>
<defs>
<clipPath id="clip0_3_428">
<rect width="39" height="39" fill="white"/>
</clipPath>
</defs>
</svg>
