<svg width="39" height="39" viewBox="0 0 39 39" fill="none" xmlns="http://www.w3.org/2000/svg">
<g clip-path="url(#clip0_3_772)">
<path d="M39 19.5C39 30.2697 30.2697 39 19.5 39C8.73031 39 0 30.2697 0 19.5C0 8.73031 8.73031 0 19.5 0C30.2697 0 39 8.73031 39 19.5Z" fill="#84DEEA"/>
<path d="M14.3414 7.78679C14.4887 7.63028 14.7362 7.62641 14.888 7.77846L15.8187 8.70918C16.0871 8.97757 16.2115 9.35783 16.1532 9.73274L15.9883 10.7953C15.9725 10.897 16.0603 10.9851 16.1624 10.9693L17.2249 10.8045C17.5998 10.7462 17.9801 10.8706 18.2485 11.1386C18.5169 11.407 18.6409 11.7873 18.5829 12.1625L18.4181 13.225C18.4023 13.3271 18.4901 13.4149 18.5918 13.3988L19.6544 13.234C20.0296 13.1759 20.4099 13.3 20.6782 13.5684C20.9463 13.8368 21.0707 14.2171 21.0124 14.592L20.8475 15.6548C20.8318 15.7566 20.9198 15.8443 21.0216 15.8286L22.0841 15.6637C22.4591 15.6054 22.8393 15.7298 23.1077 15.9982C23.3761 16.2666 23.5005 16.6468 23.4421 17.0217L23.2773 18.0843C23.2615 18.1863 23.3493 18.2741 23.4511 18.2583L24.5136 18.0935C24.8888 18.0352 25.2691 18.1596 25.5375 18.4279C25.8059 18.696 25.9299 19.0766 25.8719 19.4515L25.7071 20.514C25.6913 20.6158 25.7791 20.7039 25.8808 20.6878L26.9434 20.523C27.3186 20.4649 27.6988 20.589 27.9669 20.8574C28.2353 21.1258 28.3597 21.5061 28.3014 21.8813L28.1365 22.9438C28.1208 23.0456 28.2085 23.1333 28.3106 23.1176L29.3731 22.9527C29.748 22.8944 30.1283 23.0188 30.3967 23.2872L31.2343 24.1245C31.3854 24.2759 31.3825 24.522 31.2277 24.6696L27.5783 28.0092L11.0002 11.4314L14.3414 7.78679Z" fill="#962437"/>
<path d="M34.8367 21.4846C34.8367 24.5779 31.6422 23.3886 27.7015 23.3886C23.7608 23.3886 20.5663 24.5779 20.5663 21.4846C20.5663 18.3911 23.7608 14.9559 27.7015 14.9559C31.6422 14.9559 34.8367 18.3911 34.8367 21.4846ZM32.1962 11.1625C34.9828 8.37594 34.8126 3.6881 32.6253 1.50054C30.4377 -0.686727 29.0199 2.41311 26.2337 5.19963C23.4472 7.98616 20.3471 9.40396 22.5346 11.5915C24.7219 13.7788 29.4097 13.9487 32.1962 11.1625ZM17.9616 9.55571C15.1974 8.16706 14.8264 11.5555 13.0572 15.0767C11.2883 18.5981 8.79125 20.9187 11.5555 22.3074C14.3197 23.696 18.8233 22.3835 20.5925 18.8624C22.3614 15.3409 20.7261 10.9444 17.9616 9.55571Z" fill="#FDBF43"/>
<path d="M34.8368 21.4846C34.8368 24.5779 31.6423 23.3886 27.7016 23.3886C23.7609 23.3886 20.5665 24.5779 20.5665 21.4846C20.5665 21.1353 20.6075 20.7818 20.6852 20.4295C21.2972 22.3782 24.2057 21.4424 27.7016 21.4424C31.1975 21.4424 34.106 22.3782 34.7181 20.4295C34.7957 20.7818 34.8368 21.1353 34.8368 21.4846ZM23.3646 12.2533C22.4196 10.4424 25.1377 9.0475 27.6097 6.57549C30.0817 4.10347 31.4766 1.38539 33.2872 2.33069C33.0932 2.0263 32.8724 1.7475 32.6254 1.50054C30.4379 -0.686727 29.0201 2.41311 26.2338 5.19963C23.4473 7.98616 20.3472 9.40396 22.5347 11.5912C22.7814 11.8382 23.0605 12.059 23.3646 12.2533ZM13.0576 15.077C11.2884 18.5981 8.79136 20.9187 11.5556 22.3074C11.8677 22.4642 12.2018 22.5862 12.5517 22.6748C11.0851 21.2532 13.2269 19.0742 14.7961 15.9506C16.3657 12.8266 16.8352 9.80773 18.8511 10.1356C18.5711 9.90771 18.2739 9.71252 17.9617 9.55571C15.1975 8.16706 14.8265 11.5555 13.0576 15.077Z" fill="#FCB30B"/>
<path d="M29.6475 15.2391C30.0998 15.3724 30.5339 15.5495 30.9448 15.7628V23.5594C30.5339 23.5312 30.0998 23.4964 29.6475 23.4657V15.2391ZM27.0529 14.9877V23.3988C27.2666 23.3922 27.4829 23.3883 27.7016 23.3883C27.9203 23.3883 28.1366 23.3922 28.3502 23.3988V14.9877C28.1366 14.9672 27.9206 14.9559 27.7016 14.9559C27.4829 14.9559 27.2666 14.9672 27.0529 14.9877ZM32.2421 16.6138V23.6133C32.7346 23.6121 33.1714 23.5737 33.5394 23.4696V17.9537C33.1711 17.4663 32.7346 17.0128 32.2421 16.6138ZM21.8637 17.9537V23.4696C22.2321 23.5737 22.6686 23.6121 23.161 23.6133V16.6138C22.6686 17.0128 22.2321 17.4663 21.8637 17.9537ZM24.4583 23.5594C24.8692 23.5315 25.3033 23.4967 25.7556 23.4657V15.2391C25.3033 15.3724 24.8692 15.5495 24.4583 15.7628V23.5594ZM24.8032 6.52103C24.4616 6.81918 24.1298 7.10125 23.8195 7.37202L29.3324 12.885C29.774 12.7454 30.206 12.5636 30.6202 12.3381L24.8032 6.52103ZM26.6852 4.73367C26.5385 4.88929 26.3885 5.04491 26.2338 5.19963C26.079 5.35435 25.9234 5.50462 25.7678 5.65101L31.7152 11.5987C31.8809 11.4621 32.0416 11.3169 32.1963 11.1625C32.351 11.0077 32.4959 10.8468 32.6328 10.6813L26.6852 4.73367ZM27.8134 13.201L22.8641 8.25127C22.5168 8.60029 22.235 8.93622 22.0482 9.27036L25.9484 13.1706C26.5539 13.2551 27.1832 13.2667 27.8134 13.201ZM34.2047 4.91458L30.3042 1.01434C29.9704 1.2012 29.6344 1.48268 29.2854 1.82992L34.2348 6.7796C34.3008 6.1491 34.2889 5.51979 34.2047 4.91458ZM27.5552 3.76903L33.3722 9.58606C33.5975 9.17188 33.7793 8.73984 33.9191 8.29828L28.4062 2.78534C28.1354 3.09598 27.853 3.42744 27.5552 3.76903ZM11.4487 17.8983L18.4154 21.3984C18.7906 21.1267 19.1435 20.8184 19.4658 20.4742L12.1149 16.781C11.8843 17.1714 11.6582 17.5436 11.4487 17.8983ZM13.0575 15.077C12.9593 15.2722 12.8588 15.4638 12.757 15.6518L20.273 19.4277C20.3873 19.2459 20.4944 19.0579 20.5926 18.8624C20.6908 18.6669 20.7777 18.4687 20.8553 18.2685L13.3393 14.4926C13.2491 14.6866 13.1557 14.8815 13.0575 15.077ZM10.3641 20.257L15.293 22.7331C15.894 22.6231 16.4954 22.4365 17.0729 22.1755L10.8182 19.0335C10.5983 19.4738 10.4364 19.8812 10.3641 20.257ZM20.5346 12.3L15.6054 9.8238C15.3471 10.1062 15.1171 10.4793 14.8949 10.9188L21.1493 14.0609C21.0139 13.4417 20.8047 12.8481 20.5346 12.3ZM14.3605 12.1021C14.201 12.4818 14.0373 12.8853 13.8621 13.3033L21.213 16.9965C21.2969 16.5323 21.3335 16.0648 21.3272 15.6019L14.3605 12.1021Z" fill="#FC9302"/>
<path d="M0.0446777 20.8047C1.04741 19.9213 2.06918 19.059 3.11238 18.2211C3.85268 17.6264 4.60249 17.0426 5.36243 16.4713L7.76868 14.6631L10.4618 11.97L12.2819 10.0359C12.4292 9.87943 12.6767 9.87586 12.8288 10.0276L13.6646 10.8634C13.933 11.1318 14.057 11.5124 13.999 11.8873L13.8342 12.9498C13.8181 13.0516 13.9062 13.1394 14.0079 13.1236L15.0705 12.9587C15.4457 12.9007 15.8259 13.0248 16.094 13.2932C16.3624 13.5616 16.4868 13.9418 16.4285 14.317L16.2636 15.3796C16.2479 15.4813 16.3359 15.5691 16.4377 15.5533L17.5002 15.3885C17.8751 15.3302 18.2554 15.4546 18.5238 15.7229C18.7922 15.9913 18.9166 16.3716 18.8582 16.7465L18.6934 17.809C18.6776 17.9111 18.7654 17.9989 18.8672 17.9831L19.9297 17.8183C20.3049 17.7599 20.6852 17.8843 20.9536 18.1527C21.2219 18.4211 21.346 18.8014 21.288 19.1763L21.1232 20.2388C21.1074 20.3406 21.1952 20.4286 21.2969 20.4126L22.3595 20.2477C22.7347 20.1897 23.1146 20.3138 23.383 20.5822C23.6514 20.8506 23.7758 21.2308 23.7175 21.606L23.5526 22.6686C23.5369 22.7703 23.6246 22.8581 23.7267 22.8423L24.7892 22.6775C25.1641 22.6192 25.5444 22.7436 25.8128 23.0119C26.0812 23.2803 26.2053 23.6606 26.1472 24.0355L25.9824 25.098C25.9666 25.1998 26.0544 25.2879 26.1562 25.2721L27.219 25.1073C27.5939 25.0489 27.9742 25.1733 28.2426 25.4417L28.9721 26.1713C29.1236 26.3224 29.1206 26.5688 28.9656 26.7164L27.0417 28.5496L27.0399 28.5478L24.3468 31.2409L24.3304 31.2575L22.5362 33.6448C21.9667 34.4029 21.3847 35.1503 20.7917 35.8886C19.9541 36.9318 19.0918 37.9535 18.2087 38.9563C8.47268 38.3195 0.687675 30.5387 0.0446777 20.8047Z" fill="#E43950"/>
<path d="M24.9022 27.5593C24.5972 27.8268 24.1304 27.7929 23.8436 27.5061L11.853 15.5158C11.5558 15.2183 11.0735 15.2183 10.7759 15.5158C10.4784 15.8131 10.4784 16.2954 10.7759 16.593L22.7846 28.6016C23.0821 28.8992 23.0821 29.3815 22.7846 29.679C22.4873 29.9763 22.005 29.9763 21.7075 29.679L9.55122 17.5228C9.28283 17.2544 8.85823 17.2247 8.55503 17.4526L7.29224 18.4014C6.04761 19.3369 4.82945 20.3051 3.63778 21.3034C2.58 22.1892 1.54514 23.1009 0.531097 24.0346C0.282051 22.9881 0.117508 21.9089 0.0443115 20.8047C1.04704 19.9213 2.06911 19.059 3.11231 18.2211C3.85261 17.6263 4.60242 17.0426 5.36236 16.4713L7.76862 14.6631L10.4617 11.97L12.2818 10.0362C12.4291 9.87942 12.6766 9.87585 12.8287 10.0279L13.6645 10.8637C13.9329 11.1321 14.057 11.5124 13.9989 11.8873L13.9421 12.2527L12.8983 13.3616C12.6162 13.6615 12.6234 14.1314 12.9144 14.4224L24.9391 26.4474C25.2486 26.7565 25.2361 27.2657 24.9022 27.5593ZM2.80286 24.7785C2.11523 25.4658 1.74985 26.3894 1.68141 27.4311C3.64016 31.8247 7.17531 35.3598 11.5689 37.3186C12.6106 37.2501 13.5339 36.8847 14.2215 36.1971C16.3037 34.1149 15.4358 29.8707 12.2824 26.7176C9.1293 23.5642 4.88509 22.6962 2.80286 24.7785Z" fill="#C92E43"/>
</g>
<defs>
<clipPath id="clip0_3_772">
<rect width="39" height="39" fill="white"/>
</clipPath>
</defs>
</svg>
