<svg width="39" height="39" viewBox="0 0 39 39" fill="none" xmlns="http://www.w3.org/2000/svg">
<g clip-path="url(#clip0_3_472)">
<path d="M19.5 39C30.2696 39 39 30.2696 39 19.5C39 8.73045 30.2696 0 19.5 0C8.73045 0 0 8.73045 0 19.5C0 30.2696 8.73045 39 19.5 39Z" fill="#FFE65A"/>
<path d="M17.8239 35.5972C27.1386 35.5972 34.6896 28.0462 34.6896 18.7315C34.6896 9.41686 27.1386 1.86584 17.8239 1.86584C8.50927 1.86584 0.958252 9.41686 0.958252 18.7315C0.958252 28.0462 8.50927 35.5972 17.8239 35.5972Z" fill="white"/>
<path d="M17.8255 32.7655C25.5621 32.7655 31.8339 26.4937 31.8339 18.757C31.8339 11.0204 25.5621 4.74857 17.8255 4.74857C10.0888 4.74857 3.81702 11.0204 3.81702 18.757C3.81702 26.4937 10.0888 32.7655 17.8255 32.7655Z" fill="#AFE6FF"/>
<path d="M17.8254 30.8198C24.4875 30.8198 29.8882 25.4191 29.8882 18.757C29.8882 12.0949 24.4875 6.69421 17.8254 6.69421C11.1633 6.69421 5.76257 12.0949 5.76257 18.757C5.76257 25.4191 11.1633 30.8198 17.8254 30.8198Z" fill="white"/>
<path d="M16.985 3.77676L18.082 3.06545L35.6667 30.186L34.5697 30.8973L16.985 3.77676Z" fill="#50555A"/>
<path d="M35.6303 34.6625C34.9861 34.5252 34.3941 34.1427 34.0083 33.5478C33.2366 32.3577 33.5769 30.7617 34.7668 29.99C35.9568 29.2182 37.5528 29.5584 38.3246 30.7484C39.0962 31.9385 38.756 33.5344 37.5661 34.3062L37.566 34.3063C36.971 34.692 36.2745 34.7999 35.6303 34.6625ZM36.43 30.9117C36.1132 30.8441 35.7708 30.8972 35.4782 31.087C34.8931 31.4664 34.7259 32.2512 35.1053 32.8363C35.4847 33.4212 36.2693 33.5885 36.8546 33.2092C37.4396 32.8297 37.6069 32.045 37.2275 31.4598C37.0378 31.1673 36.7467 30.9792 36.43 30.9117Z" fill="#50555A"/>
<path d="M19.6841 11.0684L18.424 9.12539C18.0886 8.60826 18.2373 7.91067 18.7545 7.57529L20.6975 6.31518C21.2147 5.97979 21.9122 6.12848 22.2476 6.64569L23.5077 8.58868C23.8431 9.10581 23.6944 9.80339 23.1772 10.1388L21.2342 11.3989C20.717 11.7343 20.0195 11.5855 19.6841 11.0684Z" fill="#E33442"/>
<path d="M19.2626 8.35887L21.2056 7.09876C21.7228 6.76337 22.4203 6.91206 22.7557 7.42927L22.2475 6.64569C21.9121 6.12848 21.2145 5.97979 20.6974 6.31518L18.7544 7.57529C18.2372 7.91067 18.0885 8.60826 18.4239 9.12539L18.9321 9.90897C18.5967 9.39184 18.7454 8.69425 19.2626 8.35887Z" fill="#AA321E"/>
<path d="M28.8824 25.2513L27.6223 23.3083C27.2869 22.7911 27.4356 22.0936 27.9528 21.7582L29.8958 20.4981C30.4129 20.1627 31.1105 20.3114 31.4459 20.8286L32.706 22.7716C33.0414 23.2887 32.8927 23.9863 32.3755 24.3217L30.4325 25.5818C29.9154 25.9172 29.2178 25.7685 28.8824 25.2513Z" fill="#E33442"/>
<path d="M28.4609 22.5418L30.4039 21.2817C30.921 20.9463 31.6186 21.095 31.954 21.6122L31.4458 20.8286C31.1104 20.3114 30.4128 20.1627 29.8957 20.4981L27.9527 21.7582C27.4355 22.0936 27.2868 22.7911 27.6222 23.3083L28.1304 24.0919C27.795 23.5747 27.9438 22.8772 28.4609 22.5418Z" fill="#AA321E"/>
<path d="M21.7395 15.6528L20.8901 14.343C20.7169 14.076 20.793 13.7192 21.0599 13.5461L25.3125 10.7881C25.5794 10.615 25.9362 10.6911 26.1094 10.958L26.9588 12.2678C27.132 12.5348 27.0559 12.8916 26.789 13.0648L22.5365 15.8227C22.2695 15.9959 21.9127 15.9198 21.7395 15.6528Z" fill="#97D729"/>
<path d="M21.568 14.3297L25.8206 11.5717C26.0875 11.3986 26.4443 11.4747 26.6175 11.7416L26.1093 10.9581C25.9361 10.6911 25.5793 10.615 25.3123 10.7881L21.0598 13.5461C20.7928 13.7192 20.7168 14.076 20.89 14.343L21.3982 15.1266C21.225 14.8596 21.3011 14.5028 21.568 14.3297Z" fill="#82BD1C"/>
<path d="M26.6128 19.3357C27.6723 19.3357 28.5313 18.4768 28.5313 17.4172C28.5313 16.3577 27.6723 15.4987 26.6128 15.4987C25.5533 15.4987 24.6943 16.3577 24.6943 17.4172C24.6943 18.4768 25.5533 19.3357 26.6128 19.3357Z" fill="#FFEBB4"/>
<path d="M25.9246 16.3562C26.7199 15.8404 27.7532 15.9904 28.3752 16.6639C28.3327 16.5646 28.2832 16.4671 28.2224 16.3734C27.6459 15.4844 26.4579 15.2312 25.5689 15.8076C24.68 16.3842 24.4266 17.5722 25.0032 18.4612C25.064 18.5549 25.1328 18.6398 25.2061 18.7192C24.8449 17.8765 25.1294 16.8719 25.9246 16.3562Z" fill="#F0D897"/>
<path d="M33.1685 29.4439C34.228 29.4439 35.0869 28.585 35.0869 27.5255C35.0869 26.4659 34.228 25.607 33.1685 25.607C32.1089 25.607 31.25 26.4659 31.25 27.5255C31.25 28.585 32.1089 29.4439 33.1685 29.4439Z" fill="#FFEBB4"/>
<path d="M32.4803 26.4644C33.2755 25.9486 34.3089 26.0986 34.9309 26.7721C34.8883 26.6729 34.8389 26.5753 34.7781 26.4816C34.2016 25.5927 33.0136 25.3393 32.1246 25.9159C31.2356 26.4924 30.9823 27.6804 31.5589 28.5694C31.6196 28.6631 31.6885 28.748 31.7618 28.8274C31.4006 27.9848 31.6851 26.9801 32.4803 26.4644Z" fill="#F0D897"/>
<path d="M13.9155 7.52244C13.5598 7.26292 13.3305 6.85814 13.3321 6.41779C13.3333 6.10556 13.2765 5.79189 13.1555 5.48949C12.9189 4.89832 12.4751 4.4454 11.9237 4.16646C11.5007 3.95241 11.2169 3.54101 11.1658 3.06966C11.1401 2.83231 11.0814 2.59244 10.9872 2.35707C10.4855 1.10374 9.16783 0.452239 8.04414 0.902034C6.92046 1.35183 6.4162 2.73252 6.91787 3.98585C7.01209 4.22122 7.13511 4.43534 7.28029 4.62486C7.56853 5.00122 7.64698 5.49489 7.48847 5.94172C7.28189 6.52405 7.27313 7.15811 7.5098 7.74928C7.63083 8.05168 7.80626 8.31782 8.02251 8.54306C8.32743 8.8607 8.44077 9.31187 8.36239 9.74513C8.26915 10.2606 8.31196 10.7949 8.51466 11.3012C9.14536 12.8769 11.0813 13.5839 12.8389 12.8804C14.5964 12.177 15.5098 10.3294 14.8791 8.75368C14.6763 8.24744 14.3387 7.83116 13.9155 7.52244Z" fill="#97D729"/>
<path d="M9.17243 11.0379C8.96974 10.5316 8.92693 9.99727 9.02016 9.48189C9.09854 9.04863 8.9852 8.59738 8.68028 8.27982C8.46403 8.05458 8.28868 7.78844 8.16757 7.48604C7.93098 6.89487 7.93967 6.26081 8.14624 5.67848C8.30476 5.23165 8.2263 4.73806 7.93807 4.36162C7.79296 4.1721 7.66986 3.95798 7.57564 3.72254C7.12394 2.59413 7.48797 1.36288 8.38497 0.800354C8.2701 0.823815 8.15607 0.857254 8.04402 0.902043C6.92033 1.35184 6.41608 2.73253 6.91774 3.98586C7.01197 4.22123 7.13499 4.43535 7.28017 4.62494C7.5684 5.00131 7.64686 5.49498 7.48835 5.9418C7.28177 6.52414 7.27301 7.15819 7.50967 7.74936C7.63071 8.05176 7.80614 8.31791 8.02239 8.54315C8.3273 8.86079 8.44065 9.31195 8.36227 9.74522C8.26903 10.2606 8.31184 10.7949 8.51453 11.3013C9.14524 12.8769 11.0812 13.584 12.8387 12.8805C12.9498 12.836 13.0575 12.787 13.1616 12.7337C11.4996 13.2277 9.7633 12.5141 9.17243 11.0379Z" fill="#8BC727"/>
<path d="M9.09863 3.53674L13.4839 14.4925" stroke="#78A91F" stroke-width="4.652" stroke-miterlimit="10" stroke-linecap="round"/>
<path d="M10.0327 10.5475L12.3145 11.5711" stroke="#78A91F" stroke-width="4.652" stroke-miterlimit="10" stroke-linecap="round"/>
<path d="M8.75989 7.36743L11.0416 8.39103" stroke="#78A91F" stroke-width="4.652" stroke-miterlimit="10" stroke-linecap="round"/>
<path d="M8.39014 4.63751L9.79071 5.26585" stroke="#78A91F" stroke-width="4.652" stroke-miterlimit="10" stroke-linecap="round"/>
<path d="M13.8178 10.559L12.8724 12.8743" stroke="#78A91F" stroke-width="4.652" stroke-miterlimit="10" stroke-linecap="round"/>
<path d="M12.5449 7.379L11.5996 9.69432" stroke="#78A91F" stroke-width="4.652" stroke-miterlimit="10" stroke-linecap="round"/>
<path d="M10.9289 5.14801L10.3486 6.56915" stroke="#78A91F" stroke-width="4.652" stroke-miterlimit="10" stroke-linecap="round"/>
<path d="M10.8192 9.07161C10.3829 9.01265 9.98859 8.76578 9.78041 8.37784C9.63279 8.1027 9.4336 7.85385 9.18322 7.64552C8.69374 7.23823 8.08787 7.05115 7.47019 7.06821C6.99625 7.08139 6.5508 6.85463 6.28153 6.4644C6.14595 6.26787 5.9802 6.08491 5.78527 5.92266C4.74751 5.05918 3.27861 5.11341 2.50447 6.04385C1.73026 6.97429 1.944 8.42857 2.98177 9.29205C3.17669 9.45422 3.38677 9.58394 3.60462 9.68159C4.03728 9.87545 4.34121 10.2722 4.41448 10.7406C4.50993 11.3511 4.8041 11.9129 5.29358 12.3202C5.54396 12.5285 5.82488 12.6791 6.12233 12.7743C6.54166 12.9085 6.8561 13.2514 6.99343 13.6697C7.15675 14.1674 7.44871 14.6169 7.86796 14.9657C9.17264 16.0512 11.2118 15.7517 12.4226 14.2965C13.6334 12.8413 13.5573 10.7816 12.2527 9.69607C11.8334 9.34712 11.3383 9.14176 10.8192 9.07161Z" fill="#97D729"/>
<path d="M8.32111 14.4209C7.90186 14.0721 7.60989 13.6226 7.44658 13.125C7.30932 12.7066 6.99488 12.3637 6.57548 12.2296C6.2781 12.1344 5.99718 11.9838 5.74673 11.7754C5.25725 11.3681 4.96315 10.8064 4.86763 10.1959C4.79443 9.72753 4.49043 9.33075 4.05777 9.1369C3.83992 9.03924 3.62976 8.90952 3.43491 8.74735C2.50074 7.96987 2.23483 6.71387 2.75592 5.79211C2.66603 5.86745 2.58164 5.95108 2.50447 6.04386C1.73026 6.9743 1.944 8.42858 2.98177 9.29206C3.17669 9.45423 3.38677 9.58395 3.60462 9.6816C4.03728 9.87546 4.34121 10.2722 4.41448 10.7406C4.50993 11.3511 4.8041 11.9129 5.29358 12.3201C5.54396 12.5285 5.82488 12.679 6.12233 12.7743C6.54166 12.9085 6.8561 13.2513 6.99343 13.6697C7.15675 14.1674 7.44871 14.6169 7.86796 14.9656C9.17264 16.0512 11.2118 15.7516 12.4226 14.2964C12.4991 14.2044 12.5704 14.11 12.6367 14.0136C11.4101 15.2391 9.54329 15.4378 8.32111 14.4209Z" fill="#8BC727"/>
<path d="M4.68591 7.85895L13.7573 15.407" stroke="#78A91F" stroke-width="4.652" stroke-miterlimit="10" stroke-linecap="round"/>
<path d="M8.84424 13.5801L11.3382 13.3942" stroke="#78A91F" stroke-width="4.652" stroke-miterlimit="10" stroke-linecap="round"/>
<path d="M6.21118 11.3892L8.70512 11.2033" stroke="#78A91F" stroke-width="4.652" stroke-miterlimit="10" stroke-linecap="round"/>
<path d="M4.58679 9.16429L6.11762 9.05026" stroke="#78A91F" stroke-width="4.652" stroke-miterlimit="10" stroke-linecap="round"/>
<path d="M12.1786 11.7887L12.4493 14.2749" stroke="#78A91F" stroke-width="4.652" stroke-miterlimit="10" stroke-linecap="round"/>
<path d="M9.54565 9.59781L9.81629 12.084" stroke="#78A91F" stroke-width="4.652" stroke-miterlimit="10" stroke-linecap="round"/>
<path d="M7.0625 8.40488L7.22863 9.9309" stroke="#78A91F" stroke-width="4.652" stroke-miterlimit="10" stroke-linecap="round"/>
<path d="M12.8535 20.3153H10.1737L11.1545 9.28467H12.8535V20.3153Z" fill="#AA321E"/>
<path d="M11.1544 9.28467C13.6783 9.28467 15.8944 11.3377 16.8836 14.2837C17.8764 17.2406 19.5463 19.9032 21.687 22.1602C22.7756 23.3081 23.4165 24.715 23.4165 26.235C23.4165 30.1029 19.2674 33.2385 14.1491 33.2385C9.03076 33.2385 5.73267 30.0067 4.88153 26.235C2.43047 15.3746 7.68999 9.28467 11.1544 9.28467Z" fill="#AA321E"/>
<path d="M12.9446 9.28467C15.4684 9.28467 17.6845 11.3377 18.6737 14.2837C19.6665 17.2406 21.3364 19.9032 23.4771 22.1602C24.5657 23.3081 25.2066 24.715 25.2066 26.235C25.2066 30.1029 21.0575 33.2385 15.9392 33.2385C10.8209 33.2385 7.52288 30.0067 6.67166 26.235C4.22068 15.3746 9.48012 9.28467 12.9446 9.28467Z" fill="#E33442"/>
<path d="M12.9445 11.5014C13.6163 11.5014 14.2969 11.7905 14.9131 12.3373C15.6294 12.9731 16.2031 13.8901 16.5723 14.9892C17.6455 18.1857 19.4273 21.1116 21.8687 23.6857C22.6023 24.4592 22.99 25.3407 22.99 26.2351C22.99 27.4571 22.293 28.6268 21.0276 29.5288C19.6768 30.4915 17.8697 31.0218 15.9391 31.0218C13.9269 31.0218 12.2451 30.4398 10.9405 29.292C9.88941 28.3673 9.14132 27.1083 8.83404 25.7471C7.17144 18.3799 9.47815 14.4749 10.5471 13.1378C11.5797 11.846 12.54 11.5014 12.9445 11.5014ZM12.9445 10.6701C12.2247 10.6701 11.0462 11.182 9.89771 12.6186C8.75376 14.0495 6.28114 18.2109 8.02312 25.93C8.63981 28.6623 11.083 31.8529 15.9391 31.8529C20.2853 31.8529 23.8212 29.3327 23.8212 26.235C23.8212 25.1237 23.3545 24.0443 22.4717 23.1135C20.1144 20.6279 18.3946 17.8055 17.3602 14.7246C16.945 13.488 16.2896 12.4475 15.4648 11.7155C14.6944 11.0317 13.8229 10.6701 12.9445 10.6701Z" fill="white"/>
<path d="M14.904 28.5322C16.2793 28.5322 17.3942 27.4173 17.3942 26.042C17.3942 24.6667 16.2793 23.5518 14.904 23.5518C13.5287 23.5518 12.4138 24.6667 12.4138 26.042C12.4138 27.4173 13.5287 28.5322 14.904 28.5322Z" fill="white"/>
<path d="M14.904 27.7131C15.8269 27.7131 16.575 26.9649 16.575 26.042C16.575 25.1191 15.8269 24.371 14.904 24.371C13.9811 24.371 13.2329 25.1191 13.2329 26.042C13.2329 26.9649 13.9811 27.7131 14.904 27.7131Z" fill="#AA321E"/>
</g>
<defs>
<clipPath id="clip0_3_472">
<rect width="39" height="39" fill="white"/>
</clipPath>
</defs>
</svg>
